#!OML:ASF H:\Swim 2\Project 1\Capture day 1\Session 1\male.ASF
:FULLY-SPECIFIED
:DEGREES
1715
root 8.17801 9.87945 11.5439 88.7503 0.695073 -7.12584
lowerback 4.56797 -2.73907 -3.95057
upperback -2.69599 -4.08762 -2.63433
thorax -5.28274 -1.93918 -0.157571
lowerneck -22.9394 3.56975 6.43112
upperneck 19.9624 2.58865 0.38308
head 10.2617 1.7235 -0.517857
rclavicle 6.67916e-014 3.55825e-014
rhumerus 56.2406 -44.5115 -16.1939
rradius 28.1409
rwrist -11.318
rhand -13.8228 5.5761
rfingers 7.12502
rthumb 12.3 -24.0421
lclavicle 6.67916e-014 3.55825e-014
lhumerus 37.4556 -4.30498 -17.6972
lradius 27.7087
lwrist 22.218
lhand -39.4208 -6.27942
lfingers 7.12502
lthumb -12.4094 23.3322
rfemur -28.3109 6.48132 23.5237
rtibia 33.9084
rfoot 43.2458 7.73281
rtoes 20.1106
lfemur -32.6746 -6.26119 -18.808
ltibia 32.4502
lfoot 12.3318 21.0664
ltoes 40.101
1716
root 8.17181 9.87266 11.543 89.2331 0.78769 -7.12385
lowerback 4.17335 -2.7672 -3.75452
upperback -2.73052 -4.08845 -2.56062
thorax -5.10115 -1.94984 -0.209746
lowerneck -22.8856 3.68255 6.56177
upperneck 19.933 2.69957 0.397079
head 10.2476 1.7851 -0.517516
rclavicle 4.77083e-014 1.93815e-014
rhumerus 59.129 -44.4758 -18.018
rradius 27.7894
rwrist -10.2748
rhand -13.8158 5.7656
rfingers 7.12502
rthumb 12.3067 -23.8522
lclavicle 4.77083e-014 1.93815e-014
lhumerus 36.4174 -5.25993 -17.6774
lradius 27.8483
lwrist 23.4092
lhand -39.7485 -5.8806
lfingers 7.12502
lthumb -12.7253 23.7116
rfemur -29.1558 6.39471 23.3726
rtibia 32.9943
rfoot 42.301 7.40621
rtoes 20.0717
lfemur -32.584 -5.79356 -19.1779
ltibia 32.7899
lfoot 12.1516 19.957
ltoes 38.703
1717
root 8.1666 9.86623 11.5436 89.7396 0.878387 -7.11578
lowerback 3.74019 -2.82314 -3.51586
upperback -2.76216 -4.12425 -2.49068
thorax -4.89736 -1.97969 -0.289174
lowerneck -22.8926 3.82416 6.62555
upperneck 20.0089 2.85437 0.458102
head 10.2822 1.86883 -0.481287
rclavicle 1.27222e-014 -2.79292e-014
rhumerus 62.229 -44.3968 -20.143
rradius 27.3699
rwrist -9.0083
rhand -13.877 6.02242
rfingers 7.12502
rthumb 12.2477 -23.5989
lclavicle 1.27222e-014 -2.79292e-014
lhumerus 35.2731 -6.21991 -17.5988
lradius 28.1154
lwrist 24.7049
lhand -40.0918 -5.55316
lfingers 7.12502
lthumb -13.0563 24.0182
rfemur -30.0844 6.40962 23.1651
rtibia 32.0247
rfoot 41.3772 7.06268
rtoes 19.9703
lfemur -32.4419 -5.28642 -19.5787
ltibia 33.1488
lfoot 12.1023 18.7698
ltoes 37.4684
1718
root 8.16226 9.86102 11.5474 90.2515 0.970723 -7.10701
lowerback 3.29043 -2.89539 -3.23642
upperback -2.78169 -4.1811 -2.42333
thorax -4.67472 -2.02144 -0.394302
lowerneck -23.0426 3.99789 6.64344
upperneck 20.2691 3.05139 0.52781
head 10.4099 1.97198 -0.42419
rclavicle -6.36111e-015 -5.66536e-015
rhumerus 65.5275 -44.2669 -22.5424
rradius 26.8778
rwrist -7.53725
rhand -14.0022 6.30524
rfingers 7.12502
rthumb 12.127 -23.3233
lclavicle -6.36111e-015 -5.66536e-015
lhumerus 34.0572 -7.18388 -17.4644
lradius 28.5103
lwrist 26.1251
lhand -40.4117 -5.37432
lfingers 7.12502
lthumb -13.3646 24.1771
rfemur -31.0513 6.5448 22.8953
rtibia 30.996
rfoot 40.532 6.67859
rtoes 19.7849
lfemur -32.23 -4.76055 -19.9946
ltibia 33.5014
lfoot 12.202 17.5775
ltoes 36.6011
1719
root 8.15857 9.85784 11.5558 90.748 1.06333 -7.09713
lowerback 2.84918 -2.96681 -2.93277
upperback -2.78882 -4.23876 -2.35907
thorax -4.44674 -2.064 -0.516808
lowerneck -23.3859 4.1919 6.6004
upperneck 20.792 3.26875 0.627178
head 10.6684 2.08661 -0.337063
rclavicle -3.18055e-015 1.05356e-014
rhumerus 68.9367 -44.064 -25.1238
rradius 26.3312
rwrist -5.90021
rhand -14.2126 6.57909
rfingers 7.12502
rthumb 11.9241 -23.0613
lclavicle -3.18055e-015 1.05356e-014
lhumerus 32.8297 -8.15793 -17.2605
lradius 29.0264
lwrist 27.6332
lhand -40.6822 -5.42833
lfingers 7.12502
lthumb -13.6254 24.1057
rfemur -32.0063 6.80492 22.5557
rtibia 29.899
rfoot 39.8047 6.24729
rtoes 19.6304
lfemur -31.9315 -4.21474 -20.4233
ltibia 33.8295
lfoot 12.4688 16.4101
ltoes 36.1575
1720
root 8.15536 9.85713 11.57 91.2143 1.16179 -7.08214
lowerback 2.43527 -3.02843 -2.61058
upperback -2.78506 -4.2865 -2.296
thorax -4.22532 -2.10143 -0.651048
lowerneck -23.8393 4.38498 6.51328
upperneck 21.4607 3.48385 0.746421
head 11.002 2.2001 -0.230553
rclavicle 2.8625e-014 -8.64713e-015
rhumerus 72.383 -43.7696 -27.8161
rradius 25.7567
rwrist -4.14181
rhand -14.492 6.84395
rfingers 7.12502
rthumb 11.6547 -22.8119
lclavicle 2.8625e-014 -8.64713e-015
lhumerus 31.6397 -9.15574 -16.9933
lradius 29.6511
lwrist 29.1624
lhand -40.8673 -5.76883
lfingers 7.12502
lthumb -13.8038 23.7532
rfemur -32.9135 7.17941 22.152
rtibia 28.7299
rfoot 39.185 5.79318
rtoes 19.3846
lfemur -31.5435 -3.64154 -20.8552
ltibia 34.1304
lfoot 12.8493 15.2935
ltoes 36.0833
1721
root 8.15236 9.85861 11.5886 91.6339 1.26217 -7.05538
lowerback 2.06842 -3.07409 -2.28325
upperback -2.77346 -4.31753 -2.23779
thorax -4.02404 -2.12969 -0.79227
lowerneck -24.2 4.54861 6.44144
upperneck 22.007 3.66936 0.843507
head 11.2756 2.29598 -0.140034
rclavicle -6.36111e-015 4.47266e-015
rhumerus 75.759 -43.3692 -30.5117
rradius 25.1878
rwrist -2.33972
rhand -14.8278 7.0744
rfingers 7.12502
rthumb 11.3309 -22.5995
lclavicle -6.36111e-015 4.47266e-015
lhumerus 30.5072 -10.2038 -16.6959
lradius 30.396
lwrist 30.6441
lhand -40.9372 -6.42285
lfingers 7.12502
lthumb -13.8711 23.0946
rfemur -33.7393 7.64524 21.6849
rtibia 27.501
rfoot 38.6844 5.29741
rtoes 19.1199
lfemur -31.0676 -3.04571 -21.2895
ltibia 34.4182
lfoot 13.1762 14.2964
ltoes 35.7708
1722
root 8.14958 9.86202 11.6103 92.002 1.35881 -7.00529
lowerback 1.75395 -3.10257 -1.9644
upperback -2.76197 -4.33083 -2.1871
thorax -3.85311 -2.14787 -0.934811
lowerneck -24.3756 4.66291 6.36424
upperneck 22.3273 3.80171 0.965246
head 11.4291 2.36751 -0.0532302
rclavicle 6.36111e-015 4.17448e-015
rhumerus 78.9729 -42.8533 -33.1229
rradius 24.6563
rwrist -0.586594
rhand -15.203 7.26868
rfingers 7.12502
rthumb 10.969 -22.4248
lclavicle 6.36111e-015 4.17448e-015
lhumerus 29.4439 -11.2836 -16.3303
lradius 31.2442
lwrist 31.8968
lhand -40.9067 -7.3616
lfingers 7.12502
lthumb -13.8417 22.1578
rfemur -34.4776 8.15354 21.165
rtibia 26.2426
rfoot 38.2858 4.79855
rtoes 18.7618
lfemur -30.5285 -2.41809 -21.7309
ltibia 34.7197
lfoot 13.3937 13.3925
ltoes 35.1264
1723
root 8.14638 9.8666 11.6331 92.3102 1.44812 -6.93857
lowerback 1.499 -3.10867 -1.67163
upperback -2.75077 -4.31939 -2.14504
thorax -3.71511 -2.15206 -1.06966
lowerneck -24.3106 4.72542 6.32618
upperneck 22.3436 3.87977 1.06305
head 11.4225 2.41156 0.00104772
rclavicle 1.01778e-013 -1.48095e-014
rhumerus 81.9183 -42.2379 -35.5294
rradius 24.1918
rwrist 1.01085
rhand -15.6117 7.46008
rfingers 7.12502
rthumb 10.5747 -22.2539
lclavicle 1.01778e-013 -1.48095e-014
lhumerus 28.4533 -12.4265 -15.929
lradius 32.2027
lwrist 32.8453
lhand -40.7962 -8.49835
lfingers 7.12502
lthumb -13.7352 21.0283
rfemur -35.1222 8.66528 20.6154
rtibia 25.0027
rfoot 37.9676 4.31477
rtoes 18.348
lfemur -29.9399 -1.75214 -22.1751
ltibia 35.0658
lfoot 13.4512 12.5852
ltoes 33.9852
1724
root 8.14271 9.87178 11.6555 92.5546 1.52399 -6.84177
lowerback 1.30658 -3.09256 -1.41743
upperback -2.73773 -4.2829 -2.11365
thorax -3.60834 -2.14192 -1.19163
lowerneck -24.0438 4.74587 6.34861
upperneck 22.1035 3.91438 1.10382
head 11.283 2.43117 0.00953725
rclavicle 3.18055e-014 9.39258e-015
rhumerus 84.4727 -41.5691 -37.5786
rradius 23.8308
rwrist 2.32953
rhand -16.0218 7.63895
rfingers 7.12502
rthumb 10.1791 -22.0948
lclavicle 3.18055e-014 9.39258e-015
lhumerus 27.5414 -13.6657 -15.5231
lradius 33.2819
lwrist 33.4591
lhand -40.6706 -9.71108
lfingers 7.12502
lthumb -13.6141 19.8237
rfemur -35.6691 9.14136 20.0495
rtibia 23.8302
rfoot 37.7 3.84445
rtoes 17.9272
lfemur -29.3242 -1.07798 -22.6191
ltibia 35.4882
lfoot 13.3338 11.8934
ltoes 32.5144
1725
root 8.13841 9.87721 11.6766 92.7315 1.57891 -6.70842
lowerback 1.17908 -3.05604 -1.21623
upperback -2.72339 -4.22337 -2.09313
thorax -3.5334 -2.11821 -1.29256
lowerneck -23.7094 4.73067 6.37968
upperneck 21.7945 3.90053 1.15721
head 11.1046 2.43056 0.010656
rclavicle -2.8625e-014 -1.61513e-014
rhumerus 86.598 -40.8819 -39.2124
rradius 23.584
rwrist 3.3281
rhand -16.4324 7.8284
rfingers 7.12502
rthumb 9.78296 -21.9244
lclavicle -2.8625e-014 -1.61513e-014
lhumerus 26.7011 -14.9755 -15.0713
lradius 34.4638
lwrist 33.662
lhand -40.6141 -10.871
lfingers 7.12502
lthumb -13.5597 18.6675
rfemur -36.1229 9.54703 19.4853
rtibia 22.7754
rfoot 37.4842 3.4223
rtoes 17.52
lfemur -28.6958 -0.419673 -23.0608
ltibia 36.0104
lfoot 13.1519 11.276
ltoes 31.2278
1726
root 8.13345 9.88264 11.6964 92.8499 1.61537 -6.53286
lowerback 1.10844 -3.00356 -1.06334
upperback -2.70564 -4.14557 -2.08036
thorax -3.48356 -2.08362 -1.37215
lowerneck -23.412 4.69815 6.42151
upperneck 21.5405 3.85865 1.19866
head 10.9544 2.41712 0.00254515
rclavicle -1.90833e-014 -1.67973e-014
rhumerus 88.3165 -40.2126 -40.438
rradius 23.4478
rwrist 4.03969
rhand -16.8321 8.03695
rfingers 7.12502
rthumb 9.39735 -21.7336
lclavicle -1.90833e-014 -1.67973e-014
lhumerus 25.9273 -16.2616 -14.4472
lradius 35.6861
lwrist 33.354
lhand -40.6435 -11.8922
lfingers 7.12502
lthumb -13.588 17.6444
rfemur -36.4875 9.87529 18.9343
rtibia 21.8761
rfoot 37.3197 3.03068
rtoes 17.1852
lfemur -28.0885 0.193788 -23.4887
ltibia 36.6515
lfoot 12.972 10.7268
ltoes 30.3704
1727
root 8.12778 9.88777 11.7142 92.9209 1.63574 -6.30889
lowerback 1.08274 -2.94085 -0.953488
upperback -2.68927 -4.05653 -2.07305
thorax -3.45736 -2.04196 -1.4313
lowerneck -23.2403 4.66255 6.45037
upperneck 21.481 3.8002 1.25091
head 10.8993 2.39875 0.00291345
rclavicle 5.08889e-014 1.11319e-014
rhumerus 89.6916 -39.5709 -41.3234
rradius 23.4044
rwrist 4.54831
rhand -17.2132 8.2645
rfingers 7.12502
rthumb 9.02964 -21.5222
lclavicle 5.08889e-014 1.11319e-014
lhumerus 25.1965 -17.5792 -13.7268
lradius 36.9839
lwrist 32.7279
lhand -40.8075 -12.6972
lfingers 7.12502
lthumb -13.7461 16.8287
rfemur -36.7709 10.1378 18.398
rtibia 21.163
rfoot 37.2033 2.64868
rtoes 16.9444
lfemur -27.5298 0.738609 -23.8949
ltibia 37.4181
lfoot 12.8404 10.242
ltoes 29.9522
1728
root 8.12128 9.8925 11.7306 92.9555 1.65449 -6.03771
lowerback 1.09144 -2.87459 -0.872078
upperback -2.67939 -3.96436 -2.06219
thorax -3.45477 -1.99773 -1.46904
lowerneck -23.1933 4.62682 6.44083
upperneck 21.6185 3.73151 1.33685
head 10.9386 2.37944 0.0251599
rclavicle -3.65764e-014 -3.23025e-015
rhumerus 90.8247 -38.9419 -41.9852
rradius 23.424
rwrist 4.97717
rhand -17.5735 8.53482
rfingers 7.12502
rthumb 8.68192 -21.2666
lclavicle -3.65764e-014 -3.23025e-015
lhumerus 24.4622 -18.9167 -12.8885
lradius 38.359
lwrist 31.8858
lhand -41.096 -13.2535
lfingers 7.12502
lthumb -14.0241 16.2534
rfemur -36.9751 10.3281 17.9041
rtibia 20.6467
rfoot 37.14 2.29738
rtoes 16.7578
lfemur -27.0472 1.21331 -24.2615
ltibia 38.3092
lfoot 12.7933 9.79178
ltoes 30.0424
